PathFileType	4	(X/Y/Z)	C:/Users/opensim2020/Desktop/walking_exp_matlab/subject03_walking09_straight_02.trc																																																																																																																																											
DataRate	CameraRate	NumFrames	NumMarkers	Units	OrigDataRate	OrigDataStartFrame	OrigNumFrames																																																																																																																																							
100	100	4	47	mm	100	1836	364																																																																																																																																							
Frame#	Time	LFHD			RFHD			LBHD			RBHD			C7			T10			CLAV			STRN			RBAK			LSHO			LUPA			LELB			LFRM			LWRA			LWRB			LFIN			RSHO			RUPA			RELB			RFRM			RWRA			RWRB			RFIN			LASI			RASI			LPSI			RPSI			LTHI			LKNE			LTIB			LANK			LHEE			LTOE			RTHI			RKNE			RTIB			RANK			RHEE			RTOE			*39			*40			*41			*42			*43			*44			*45			*46		
		X1	Y1	Z1	X2	Y2	Z2	X3	Y3	Z3	X4	Y4	Z4	X5	Y5	Z5	X6	Y6	Z6	X7	Y7	Z7	X8	Y8	Z8	X9	Y9	Z9	X10	Y10	Z10	X11	Y11	Z11	X12	Y12	Z12	X13	Y13	Z13	X14	Y14	Z14	X15	Y15	Z15	X16	Y16	Z16	X17	Y17	Z17	X18	Y18	Z18	X19	Y19	Z19	X20	Y20	Z20	X21	Y21	Z21	X22	Y22	Z22	X23	Y23	Z23	X24	Y24	Z24	X25	Y25	Z25	X26	Y26	Z26	X27	Y27	Z27	X28	Y28	Z28	X29	Y29	Z29	X30	Y30	Z30	X31	Y31	Z31	X32	Y32	Z32	X33	Y33	Z33	X34	Y34	Z34	X35	Y35	Z35	X36	Y36	Z36	X37	Y37	Z37	X38	Y38	Z38	X39	Y39	Z39	X40	Y40	Z40	X41	Y41	Z41	X42	Y42	Z42	X43	Y43	Z43	X44	Y44	Z44	X45	Y45	Z45	X46	Y46	Z46	X47	Y47	Z47
																																																																																																																																														
1	0	-1495.66211	1629.72131	-1466.69104	-1506.78992	1627.61292	-1334.10437	-1623.37781	1585.63855	-1474.70178	-1629.83215	1583.41333	-1343.9812	-1657.45422	1423.4751	-1420.21777	-1690.97864	1111.24304	-1429.94067	-1534.771	1348.09167	-1424.02686	-1491.3634	1183.82971	-1440.27246	-1707.91956	1243.67419	-1331.36865	-1581.34558	1393.64917	-1576.7489	-1583.62109	1202.10913	-1658.49158	-1568.83313	1081.62964	-1679.71082	-1517.38892	962.68079	-1687.59387	-1467.81885	853.03448	-1663.85229	-1498.22961	851.87921	-1710.38904	-1461.63672	775.50586	-1705.38586	-1578.29272	1363.12878	-1262.66919	-1575.21899	1136.1521	-1204.2467	-1562.72681	1023.07495	-1198.59277	-1556.15796	886.02222	-1200.85974	-1536.73694	788.75073	-1240.15234	-1564.64526	785.66766	-1193.51233	-1551.98572	712.08838	-1207.66504	-1538.85376	943.2699	-1562.10559	-1514.86621	944.30029	-1325.38904	-1693.65454	974.5033	-1494.84094	-1678.39673	979.96857	-1348.01489	-1644.8844	647.14514	-1600.42371	-1673.62903	469.42923	-1576.82043	-1812.50391	323.88525	-1549.93176	-1923.57397	151.64716	-1490.55273	-1961.37219	142.7401	-1439.11475	-1818.33496	34.39855	-1490.16113	-1549.38416	650.43573	-1287.04712	-1513.52942	474.34509	-1331.02014	-1529.50098	287.24344	-1329.9137	-1518.2688	72.49745	-1382.99231	-1559.91272	40.37707	-1435.58728	-1375.34424	38.71652	-1399.04102	-1581.56946	1688.35449	-1419.69885	NaN	NaN	NaN	NaN	NaN	NaN	NaN	NaN	NaN	NaN	NaN	NaN	NaN	NaN	NaN	NaN	NaN	NaN	NaN	NaN	NaN
2	0.01	-1489.3866	1630.47827	-1466.20361	-1500.45398	1628.03137	-1333.66455	-1617.02673	1586.12927	-1474.3385	-1623.40894	1583.53772	-1343.65552	-1650.58813	1423.72961	-1420.06152	-1683.63879	1111.46057	-1429.10449	-1527.73267	1348.63416	-1423.86438	-1484.11279	1184.31714	-1439.88489	-1700.41089	1243.61743	-1330.68982	-1574.34229	1394.15308	-1576.60388	-1577.23083	1202.42456	-1658.11829	-1563.38342	1081.73328	-1679.13049	-1513.3186	962.15643	-1686.93555	-1465.01514	851.93774	-1663.12329	-1495.46826	851.02783	-1709.62964	-1460.12366	774.00684	-1704.35571	-1571.30579	1363.68774	-1262.47498	-1567.40881	1136.8656	-1203.6886	-1554.59326	1023.81653	-1197.76172	-1547.1001	886.82129	-1200.00574	-1527.12012	789.77246	-1238.9967	-1555.08582	786.35895	-1192.58765	-1542.01904	713.06488	-1206.49438	-1531.84863	943.71906	-1561.38831	-1507.76428	944.26172	-1324.95483	-1686.62073	974.75671	-1494.13708	-1670.9834	980.35687	-1347.26172	-1634.88721	646.92682	-1602.43518	-1661.17004	468.5816	-1580.47229	-1802.03723	325.31989	-1553.03271	-1916.71021	156.06427	-1492.8999	-1954.5697	149.55692	-1441.48523	-1817.23706	34.50384	-1490.12939	-1545.01172	650.60095	-1287.08838	-1510.00244	474.19534	-1330.53381	-1527.42493	287.2243	-1329.82544	-1517.98413	72.3766	-1383.13074	-1559.86096	40.36679	-1435.68872	-1375.21252	38.68833	-1399.09644	NaN	NaN	NaN	NaN	NaN	NaN	NaN	NaN	NaN	NaN	NaN	NaN	NaN	NaN	NaN	NaN	NaN	NaN	NaN	NaN	NaN	NaN	NaN	NaN
3	0.02	-1483.1676	1631.12366	-1465.72827	-1494.38672	1628.45325	-1333.12805	-1610.66357	1586.44531	-1473.98462	-1616.97412	1583.54443	-1343.20471	-1643.80176	1423.96082	-1419.95947	-1676.44385	1111.53918	-1428.20422	-1520.72925	1349.01929	-1423.73328	-1476.97949	1184.68396	-1439.5769	-1693.24756	1243.79163	-1330.33704	-1567.37451	1394.34448	-1576.44946	-1570.81787	1202.50195	-1657.79944	-1557.84521	1081.61157	-1678.57739	-1509.08093	961.30426	-1686.22437	-1462.19043	850.69458	-1662.46265	-1492.63062	850.07068	-1708.92566	-1458.56531	772.41486	-1703.33826	-1564.30969	1364.10645	-1262.31042	-1559.54675	1137.37317	-1203.08716	-1546.22876	1024.45911	-1196.95813	-1537.90588	887.46851	-1199.02783	-1517.20923	790.57379	-1237.82922	-1545.32849	787.02234	-1191.55615	-1531.62463	713.81635	-1205.34521	-1525.16479	943.9541	-1560.66406	-1500.68945	944.08508	-1324.40552	-1679.8739	974.76202	-1493.57336	-1663.8645	980.72186	-1346.64258	-1624.80078	646.49365	-1604.41003	-1648.13318	467.53961	-1583.71655	-1790.86243	326.68723	-1556.02393	-1909.18835	160.52631	-1495.68372	-1946.94104	156.30263	-1444.0918	-1816.00476	34.761	-1490.22302	-1539.45544	651.10107	-1286.24207	-1506.48474	474.20285	-1329.9375	-1525.41187	287.25977	-1329.5603	-1517.81726	72.2244	-1383.15332	-1559.86023	40.39257	-1435.74109	-1375.14014	38.65616	-1399.05811	NaN	NaN	NaN	NaN	NaN	NaN	NaN	NaN	NaN	NaN	NaN	NaN	NaN	NaN	NaN	NaN	NaN	NaN	NaN	NaN	NaN	NaN	NaN	NaN
4	0.03	-1476.92383	1631.68115	-1465.33167	-1488.02209	1628.56946	-1332.80408	-1604.32336	1586.6532	-1473.70093	-1610.68372	1583.46948	-1342.92175	-1637.02246	1424.08325	-1419.87878	-1669.40063	1111.58142	-1427.37634	-1513.86829	1349.28125	-1423.51257	-1470.08594	1184.93652	-1439.33997	-1686.12195	1243.85144	-1329.86731	-1560.52234	1394.41052	-1576.40051	-1564.50916	1202.38025	-1657.51489	-1552.15381	1081.12354	-1677.99365	-1504.8501	960.40027	-1685.57996	-1459.48376	849.16858	-1661.66504	-1489.61438	848.88733	-1708.27759	-1456.84949	770.64209	-1702.34692	-1557.4082	1364.37317	-1262.15417	-1551.74634	1137.75562	-1202.45862	-1537.75232	1024.96692	-1196.15503	-1528.58069	888.03204	-1198.03076	-1507.37488	791.16315	-1236.79565	-1535.32642	787.52856	-1190.50354	-1520.97021	714.55865	-1204.021	-1518.00464	944.13092	-1560.15979	-1493.79944	943.91858	-1323.8761	-1673.27185	974.54742	-1493.15771	-1657.06714	981.14447	-1346.21228	-1614.5896	645.89679	-1606.27502	-1634.64246	466.41251	-1586.7085	-1778.9364	327.86517	-1558.92859	-1900.72815	164.65913	-1498.82727	-1938.68665	163.13029	-1447.33459	-1814.20776	34.99766	-1490.31946	-1535.47363	651.78101	-1285.65735	-1502.99805	474.29199	-1329.38159	-1523.40234	287.29276	-1329.22937	-1517.71741	72.28457	-1383.16528	-1559.87268	40.41757	-1435.7356	-1375.09106	38.64145	-1399.02905	NaN	NaN	NaN	NaN	NaN	NaN	NaN	NaN	NaN	NaN	NaN	NaN	NaN	NaN	NaN	NaN	NaN	NaN	NaN	NaN	NaN	NaN	NaN	NaN
